# xmcd
#
# Track frame offsets:
# 150
# 9546
# 22241
# 32705
# 45005
# 59298
# 71067
# 86031
# 97392
# 108338
# 122772
# 134178
# 145453
# 160042
#
# Disc length: 2286 seconds
#
#
# Revision: 0
# Processed by: cddbd v1.5.1PL0 Copyright (c) Steve Scherf et al.
# Submitted via: FreeRIP 2.90 
#
DISCID=ca08ec0e
DTITLE=Frankie Lane - Frankie Lane
DYEAR=1900
DGENRE=Country
TTITLE0=Rawhide
TTITLE1=Moonlight Gambler
TTITLE2=I Believe
TTITLE3=High Noon
TTITLE4=Don't Fence Me In
TTITLE5=Strange Lady In Town
TTITLE6=Jezebel
TTITLE7=Mule Train
TTITLE8=Humming Bird
TTITLE9=There Must Be A Reason
TTITLE10=Love Is A Golden Ring
TTITLE11=Rose Rose I Love You
TTITLE12=Jealously
TTITLE13=Answer Me
EXTD=
EXTT0=
EXTT1=
EXTT2=
EXTT3=
EXTT4=
EXTT5=
EXTT6=
EXTT7=
EXTT8=
EXTT9=
EXTT10=
EXTT11=
EXTT12=
EXTT13=
PLAYORDER=
